<svg width="149" height="60" viewBox="0 0 149 60" fill="none" xmlns="http://www.w3.org/2000/svg">
<g clip-path="url(#clip0_0_10)">
<path d="M48.626 9.3845C47.3165 9.3845 46.2062 8.92788 45.29 8.01466C44.3739 7.10143 43.9158 5.99464 43.9158 4.68932C43.9158 3.384 44.3739 2.27721 45.29 1.36398C46.2062 0.450754 47.3165 -0.00585938 48.626 -0.00585938C49.9355 -0.00585938 51.0459 0.450754 51.962 1.36398C52.8782 2.27721 53.3363 3.384 53.3363 4.68932C53.3363 5.99464 52.8782 7.10143 51.962 8.01466C51.0459 8.92788 49.9355 9.3845 48.626 9.3845ZM44.4784 45.7647V13.901C44.4784 13.4444 44.8518 13.0721 45.3099 13.0721H51.9969C52.455 13.0721 52.8284 13.4444 52.8284 13.901V45.7597C52.8284 46.2163 52.455 46.5886 51.9969 46.5886H45.3099C44.8518 46.5886 44.4784 46.2163 44.4784 45.7597V45.7647Z" fill="#F53D19"/>
<path d="M144.295 46.5935C142.985 46.5935 141.875 46.1369 140.959 45.2236C140.043 44.3104 139.584 43.2036 139.584 41.8983C139.584 40.593 140.043 39.4862 140.959 38.573C141.875 37.6597 142.985 37.2031 144.295 37.2031C145.604 37.2031 146.715 37.6597 147.631 38.573C148.547 39.4862 149.005 40.593 149.005 41.8983C149.005 43.2036 148.547 44.3104 147.631 45.2236C146.715 46.1369 145.604 46.5935 144.295 46.5935Z" fill="#F53D19"/>
<path d="M62.458 60.0002V22.2304C62.458 21.7737 62.0846 21.4015 61.6265 21.4015H59.1469C58.6888 21.4015 58.3154 21.0293 58.3154 20.5727V13.9071C58.3154 13.4505 58.6888 13.0782 59.1469 13.0782H66.0529C66.511 13.0782 66.8845 13.4505 66.8845 13.9071V17.6096C66.8845 18.0662 67.2579 18.4385 67.716 18.4385H68.3334C68.8811 18.4385 69.3939 18.1655 69.7026 17.7188C70.803 16.1306 72.2171 14.8799 73.9448 13.9716C75.9265 12.9293 78.3165 12.4082 81.1197 12.4082C84.5553 12.4082 87.4731 13.1279 89.8631 14.5573C92.253 15.9916 94.0654 18.0116 95.3003 20.6173C96.5351 23.223 97.1475 26.2952 97.1475 29.834C97.1475 33.3727 96.5401 36.4449 95.3252 39.0506C94.1102 41.6563 92.3626 43.6813 90.0821 45.1107C87.8017 46.545 85.0582 47.2597 81.8417 47.2597C79.3024 47.2597 77.1165 46.7733 75.2842 45.8055C73.4519 44.8377 72.0329 43.4778 71.0221 41.7258H70.798V59.9953H62.4481L62.458 60.0002ZM79.6061 40.0581C82.6334 40.0581 84.9188 39.1548 86.4723 37.3482C88.0208 35.5416 88.7975 33.0352 88.7975 29.834C88.7975 26.6327 88.0208 24.1263 86.4723 22.3197C84.9238 20.5131 82.6334 19.6098 79.6061 19.6098C76.9522 19.6098 74.8212 20.3642 73.2179 21.873C71.6096 23.3818 70.808 25.4217 70.808 27.9926V31.6803C70.808 34.2512 71.6096 36.2911 73.2179 37.7999C74.8212 39.3087 76.9522 40.0631 79.6061 40.0631V40.0581Z" fill="#F53D19"/>
<path d="M4.1476 60.0002V22.2304C4.1476 21.7737 3.77417 21.4015 3.31609 21.4015H0.831512C0.373434 21.4015 0 21.0293 0 20.5727V13.9071C0 13.4505 0.373434 13.0782 0.831512 13.0782H7.73754C8.19562 13.0782 8.56906 13.4505 8.56906 13.9071V17.6096C8.56906 18.0662 8.94249 18.4385 9.40057 18.4385H10.018C10.5657 18.4385 11.0785 18.1655 11.3872 17.7188C12.4876 16.1306 13.9017 14.8799 15.6294 13.9716C17.6111 12.9293 20.0011 12.4082 22.8043 12.4082C26.2399 12.4082 29.1577 13.1279 31.5477 14.5573C33.9376 15.9916 35.75 18.0116 36.9849 20.6173C38.2197 23.223 38.8321 26.2952 38.8321 29.834C38.8321 33.3727 38.2247 36.4449 37.0098 39.0506C35.7949 41.6563 34.0472 43.6813 31.7668 45.1107C29.4863 46.545 26.7428 47.2597 23.5263 47.2597C20.987 47.2597 18.8011 46.7733 16.9688 45.8055C15.1365 44.8377 13.7175 43.4778 12.7067 41.7258H12.4826V59.9953H4.1476V60.0002ZM21.2957 40.0581C24.323 40.0581 26.6084 39.1548 28.1619 37.3482C29.7104 35.5416 30.4871 33.0352 30.4871 29.834C30.4871 26.6327 29.7104 24.1263 28.1619 22.3197C26.6134 20.5131 24.323 19.6098 21.2957 19.6098C18.6418 19.6098 16.5107 20.3642 14.9075 21.873C13.2992 23.3818 12.4976 25.4217 12.4976 27.9926V31.6803C12.4976 34.2512 13.2992 36.2911 14.9075 37.7999C16.5107 39.3087 18.6418 40.0631 21.2957 40.0631V40.0581Z" fill="#F53D19"/>
<path d="M119.26 47.2638C115.635 47.2638 112.488 46.5491 109.815 45.1147C107.141 43.6804 105.069 41.6604 103.596 39.0547C102.117 36.449 101.38 33.3768 101.38 29.838C101.38 26.2993 102.117 23.1725 103.596 20.5618C105.069 17.9562 107.156 15.9461 109.844 14.5266C112.533 13.1121 115.675 12.4023 119.26 12.4023C122.845 12.4023 126.071 13.1121 128.705 14.5266C131.339 15.9411 133.386 17.9562 134.845 20.5618C136.303 23.1675 137.03 26.2596 137.03 29.838C137.03 33.4165 136.303 36.4589 134.845 39.0845C133.386 41.71 131.334 43.73 128.68 45.1445C126.027 46.559 122.89 47.2688 119.265 47.2688L119.26 47.2638ZM119.26 40.0026C122.247 40.0026 124.568 39.0993 126.211 37.2927C127.854 35.4861 128.675 32.9996 128.675 29.8331C128.675 26.6666 127.854 24.1353 126.211 22.3486C124.568 20.5618 122.247 19.6685 119.26 19.6685C116.272 19.6685 113.887 20.5618 112.224 22.3486C110.561 24.1353 109.73 26.612 109.73 29.7785C109.73 32.945 110.561 35.4861 112.224 37.2927C113.887 39.0993 116.233 40.0026 119.26 40.0026Z" fill="#F53D19"/>
</g>
<defs>
<clipPath id="clip0_0_10">
<rect width="149" height="60" fill="white"/>
</clipPath>
</defs>
</svg>
